HIERARCHY
ROOT mixamorig:Hips
{
	OFFSET 0.000000 104.274902 0.000000
	CHANNELS 6 Xposition Yposition Zposition Xrotation Yrotation Zrotation
	JOINT mixamorig:Spine
	{
		OFFSET 0.000000 10.181549 0.131524
		CHANNELS 6 Xposition Yposition Zposition Xrotation Yrotation Zrotation
		JOINT mixamorig:Spine1
		{
			OFFSET 0.000000 9.893990 -1.470706
			CHANNELS 3 Xrotation Yrotation Zrotation
			JOINT mixamorig:Spine2
			{
				OFFSET 0.000000 9.220787 -1.370636
				CHANNELS 3 Xrotation Yrotation Zrotation
				JOINT mixamorig:Neck
				{
					OFFSET 0.000000 16.740372 -2.049023
					CHANNELS 6 Xposition Yposition Zposition Xrotation Yrotation Zrotation
					JOINT mixamorig:Head
					{
						OFFSET 0.000000 9.617859 1.684975
						CHANNELS 6 Xposition Yposition Zposition Xrotation Yrotation Zrotation
						JOINT mixamorig:HeadTop_End
						{
							OFFSET 0.000000 22.037369 7.501070
							CHANNELS 6 Xposition Yposition Zposition Xrotation Yrotation Zrotation
							End Site
							{
								OFFSET 0.000000 23.106567 -2.828246
							}
						}
					}
				}
				JOINT mixamorig:RightShoulder
				{
					OFFSET -4.570000 11.014862 -2.160841
					CHANNELS 6 Xposition Yposition Zposition Xrotation Yrotation Zrotation
					JOINT mixamorig:RightArm
					{
						OFFSET -10.592869 -0.524796 -2.232105
						CHANNELS 3 Xrotation Yrotation Zrotation
						JOINT mixamorig:RightForeArm
						{
							OFFSET -27.841499 0.000000 0.000000
							CHANNELS 3 Xrotation Yrotation Zrotation
							JOINT mixamorig:RightHand
							{
								OFFSET -28.328800 0.000000 0.000000
								CHANNELS 3 Xrotation Yrotation Zrotation
								JOINT mixamorig:RightHandThumb1
								{
									OFFSET -2.464798 -1.573990 2.681910
									CHANNELS 6 Xposition Yposition Zposition Xrotation Yrotation Zrotation
									JOINT mixamorig:RightHandThumb2
									{
										OFFSET -3.244789 -1.873367 1.873378
										CHANNELS 3 Xrotation Yrotation Zrotation
										JOINT mixamorig:RightHandThumb3
										{
											OFFSET -2.646255 -1.527817 1.527816
											CHANNELS 3 Xrotation Yrotation Zrotation
											JOINT mixamorig:RightHandThumb4
											{
												OFFSET -1.994583 -1.151581 1.151575
												CHANNELS 3 Xrotation Yrotation Zrotation
												End Site
												{
													OFFSET -1.860176 -1.142715 1.365483
												}
											}
										}
									}
								}
								JOINT mixamorig:RightHandIndex1
								{
									OFFSET -9.108299 -0.517883 2.259803
									CHANNELS 6 Xposition Yposition Zposition Xrotation Yrotation Zrotation
									JOINT mixamorig:RightHandIndex2
									{
										OFFSET -3.700005 0.000000 0.000000
										CHANNELS 3 Xrotation Yrotation Zrotation
										JOINT mixamorig:RightHandIndex3
										{
											OFFSET -2.849998 0.000000 0.000000
											CHANNELS 3 Xrotation Yrotation Zrotation
											JOINT mixamorig:RightHandIndex4
											{
												OFFSET -2.772202 0.000000 0.000000
												CHANNELS 3 Xrotation Yrotation Zrotation
												End Site
												{
													OFFSET -2.772202 0.000000 -0.000484
												}
											}
										}
									}
								}
								JOINT mixamorig:RightHandMiddle1
								{
									OFFSET -9.532501 0.000000 0.000000
									CHANNELS 6 Xposition Yposition Zposition Xrotation Yrotation Zrotation
									JOINT mixamorig:RightHandMiddle2
									{
										OFFSET -3.699997 0.000000 0.000000
										CHANNELS 3 Xrotation Yrotation Zrotation
										JOINT mixamorig:RightHandMiddle3
										{
											OFFSET -2.950005 0.000000 0.000000
											CHANNELS 3 Xrotation Yrotation Zrotation
											JOINT mixamorig:RightHandMiddle4
											{
												OFFSET -2.946602 0.000000 0.000000
												CHANNELS 3 Xrotation Yrotation Zrotation
												End Site
												{
													OFFSET -2.946594 0.000000 -0.000982
												}
											}
										}
									}
								}
								JOINT mixamorig:RightHandRing1
								{
									OFFSET -9.103600 -0.043106 -1.865100
									CHANNELS 6 Xposition Yposition Zposition Xrotation Yrotation Zrotation
									JOINT mixamorig:RightHandRing2
									{
										OFFSET -3.379303 0.000000 0.000000
										CHANNELS 3 Xrotation Yrotation Zrotation
										JOINT mixamorig:RightHandRing3
										{
											OFFSET -2.889702 0.000000 0.000000
											CHANNELS 3 Xrotation Yrotation Zrotation
											JOINT mixamorig:RightHandRing4
											{
												OFFSET -2.638794 0.000000 0.000000
												CHANNELS 3 Xrotation Yrotation Zrotation
												End Site
												{
													OFFSET -2.638794 0.000000 0.004219
												}
											}
										}
									}
								}
								JOINT mixamorig:RightHandPinky1
								{
									OFFSET -8.076698 -0.486725 -3.806297
									CHANNELS 6 Xposition Yposition Zposition Xrotation Yrotation Zrotation
									JOINT mixamorig:RightHandPinky2
									{
										OFFSET -3.600006 0.000000 0.000000
										CHANNELS 3 Xrotation Yrotation Zrotation
										JOINT mixamorig:RightHandPinky3
										{
											OFFSET -2.099998 0.000000 0.000000
											CHANNELS 3 Xrotation Yrotation Zrotation
											JOINT mixamorig:RightHandPinky4
											{
												OFFSET -2.115799 0.000000 0.000000
												CHANNELS 3 Xrotation Yrotation Zrotation
												End Site
												{
													OFFSET -2.115799 0.000000 0.000174
												}
											}
										}
									}
								}
							}
						}
					}
				}
				JOINT mixamorig:LeftShoulder
				{
					OFFSET 4.570400 11.014664 -2.160817
					CHANNELS 6 Xposition Yposition Zposition Xrotation Yrotation Zrotation
					JOINT mixamorig:LeftArm
					{
						OFFSET 10.592365 -0.524597 -2.232113
						CHANNELS 3 Xrotation Yrotation Zrotation
						JOINT mixamorig:LeftForeArm
						{
							OFFSET 27.841499 0.000000 0.000000
							CHANNELS 3 Xrotation Yrotation Zrotation
							JOINT mixamorig:LeftHand
							{
								OFFSET 28.328804 0.000000 0.000000
								CHANNELS 3 Xrotation Yrotation Zrotation
								JOINT mixamorig:LeftHandThumb1
								{
									OFFSET 2.466095 -1.576202 2.681697
									CHANNELS 6 Xposition Yposition Zposition Xrotation Yrotation Zrotation
									JOINT mixamorig:LeftHandThumb2
									{
										OFFSET 3.243317 -1.872528 1.872528
										CHANNELS 3 Xrotation Yrotation Zrotation
										JOINT mixamorig:LeftHandThumb3
										{
											OFFSET 2.647881 -1.528763 1.528755
											CHANNELS 3 Xrotation Yrotation Zrotation
											JOINT mixamorig:LeftHandThumb4
											{
												OFFSET 1.998924 -1.154068 1.154079
												CHANNELS 3 Xrotation Yrotation Zrotation
												End Site
												{
													OFFSET 1.884041 -1.149155 1.337651
												}
											}
										}
									}
								}
								JOINT mixamorig:LeftHandIndex1
								{
									OFFSET 9.109299 -0.518005 2.259899
									CHANNELS 6 Xposition Yposition Zposition Xrotation Yrotation Zrotation
									JOINT mixamorig:LeftHandIndex2
									{
										OFFSET 3.699997 0.000000 0.000000
										CHANNELS 3 Xrotation Yrotation Zrotation
										JOINT mixamorig:LeftHandIndex3
										{
											OFFSET 2.849998 0.000000 0.000000
											CHANNELS 3 Xrotation Yrotation Zrotation
											JOINT mixamorig:LeftHandIndex4
											{
												OFFSET 2.774902 0.000000 0.000000
												CHANNELS 3 Xrotation Yrotation Zrotation
												End Site
												{
													OFFSET 2.774902 0.000000 -0.000072
												}
											}
										}
									}
								}
								JOINT mixamorig:LeftHandMiddle1
								{
									OFFSET 9.533394 0.000000 0.000000
									CHANNELS 6 Xposition Yposition Zposition Xrotation Yrotation Zrotation
									JOINT mixamorig:LeftHandMiddle2
									{
										OFFSET 3.700005 0.000000 0.000000
										CHANNELS 3 Xrotation Yrotation Zrotation
										JOINT mixamorig:LeftHandMiddle3
										{
											OFFSET 2.949997 0.000000 0.000000
											CHANNELS 3 Xrotation Yrotation Zrotation
											JOINT mixamorig:LeftHandMiddle4
											{
												OFFSET 2.952904 0.000000 0.000000
												CHANNELS 3 Xrotation Yrotation Zrotation
												End Site
												{
													OFFSET 2.952896 0.000000 0.000165
												}
											}
										}
									}
								}
								JOINT mixamorig:LeftHandRing1
								{
									OFFSET 9.104500 -0.042999 -1.865100
									CHANNELS 6 Xposition Yposition Zposition Xrotation Yrotation Zrotation
									JOINT mixamorig:LeftHandRing2
									{
										OFFSET 3.149994 0.000000 0.000000
										CHANNELS 3 Xrotation Yrotation Zrotation
										JOINT mixamorig:LeftHandRing3
										{
											OFFSET 2.950005 0.000000 0.000000
											CHANNELS 3 Xrotation Yrotation Zrotation
											JOINT mixamorig:LeftHandRing4
											{
												OFFSET 2.644295 0.000000 0.000000
												CHANNELS 3 Xrotation Yrotation Zrotation
												End Site
												{
													OFFSET 2.644302 0.000000 0.000083
												}
											}
										}
									}
								}
								JOINT mixamorig:LeftHandPinky1
								{
									OFFSET 8.077797 -0.486893 -3.806301
									CHANNELS 6 Xposition Yposition Zposition Xrotation Yrotation Zrotation
									JOINT mixamorig:LeftHandPinky2
									{
										OFFSET 3.599998 0.000000 0.000000
										CHANNELS 3 Xrotation Yrotation Zrotation
										JOINT mixamorig:LeftHandPinky3
										{
											OFFSET 2.099998 0.000000 0.000000
											CHANNELS 3 Xrotation Yrotation Zrotation
											JOINT mixamorig:LeftHandPinky4
											{
												OFFSET 2.125504 0.000000 0.000000
												CHANNELS 3 Xrotation Yrotation Zrotation
												End Site
												{
													OFFSET 2.125504 0.000000 -0.001254
												}
											}
										}
									}
								}
							}
						}
					}
				}
			}
		}
	}
	JOINT mixamorig:RightUpLeg
	{
		OFFSET -8.207800 -6.751701 -1.599544
		CHANNELS 6 Xposition Yposition Zposition Xrotation Yrotation Zrotation
		JOINT mixamorig:RightLeg
		{
			OFFSET 0.000000 -44.370155 0.345934
			CHANNELS 3 Xrotation Yrotation Zrotation
			JOINT mixamorig:RightFoot
			{
				OFFSET 0.000000 -44.423664 -3.043536
				CHANNELS 3 Xrotation Yrotation Zrotation
				JOINT mixamorig:RightToeBase
				{
					OFFSET 0.000000 -8.728685 10.710592
					CHANNELS 3 Xrotation Yrotation Zrotation
					JOINT mixamorig:RightToe_End
					{
						OFFSET 0.000000 -0.000664 9.278099
						CHANNELS 3 Xrotation Yrotation Zrotation
						End Site
						{
							OFFSET 0.000000 -0.000664 9.278101
						}
					}
				}
			}
		}
	}
	JOINT mixamorig:LeftUpLeg
	{
		OFFSET 8.207800 -6.751701 -1.599544
		CHANNELS 6 Xposition Yposition Zposition Xrotation Yrotation Zrotation
		JOINT mixamorig:LeftLeg
		{
			OFFSET 0.000000 -44.370049 0.346940
			CHANNELS 3 Xrotation Yrotation Zrotation
			JOINT mixamorig:LeftFoot
			{
				OFFSET 0.000000 -44.423603 -3.044389
				CHANNELS 3 Xrotation Yrotation Zrotation
				JOINT mixamorig:LeftToeBase
				{
					OFFSET 0.000000 -8.728686 10.710592
					CHANNELS 3 Xrotation Yrotation Zrotation
					JOINT mixamorig:LeftToe_End
					{
						OFFSET 0.000000 -0.000680 9.278100
						CHANNELS 3 Xrotation Yrotation Zrotation
						End Site
						{
							OFFSET 0.000000 -0.000680 9.278100
						}
					}
				}
			}
		}
	}
}
MOTION
Frames: 4
Frame Time: 0.033333
4.939717 102.801453 -0.963735 -7.265545 -12.280637 -6.753197 -0.000001 10.181554 0.131526 5.572913 -1.677413 0.923204 1.456114 0.150809 5.313243 1.446934 0.644122 5.222520 0.000001 16.740360 -2.049023 6.907555 -0.757643 -2.054354 -0.000000 9.617826 1.684977 12.444842 -3.285487 -2.331767 -0.000001 22.037384 7.501071 0.000001 0.000000 -0.000000 -4.569997 11.014839 -2.160840 6.134066 11.631856 12.611622 70.823837 65.249446 -31.178591 -0.000829 86.629195 0.001021 -37.760718 4.148005 43.214405 -2.464804 -1.573967 2.681909 8.964920 -3.611339 -6.716573 -2.008601 -24.030586 3.354436 3.455886 -14.538794 0.135355 -0.000002 -0.000004 0.000000 -9.108305 -0.517876 2.259788 3.159010 -8.864522 59.654503 4.040360 -6.287138 72.335747 2.236580 -4.811427 65.413917 0.000002 -0.000002 0.000004 -9.532504 -0.000004 -0.000009 4.913317 -11.249698 68.028541 5.171877 -6.611834 85.330202 3.541268 -5.399332 67.577530 0.000000 0.000002 -0.000001 -9.103591 -0.043106 -1.865118 7.508298 -11.661248 79.351232 6.465773 -5.443058 92.216440 2.466228 -4.348676 69.362470 -0.000000 -0.000001 -0.000000 -8.076708 -0.486738 -3.806314 10.248016 -18.268989 89.801107 6.000855 -6.060036 97.534596 1.529658 -5.406816 73.654984 0.000002 -0.000001 0.000001 4.570394 11.014648 -2.160814 -0.240000 -22.197104 -13.470040 12.627648 -45.520441 -36.118771 0.000036 -101.634103 0.000041 -3.597354 -4.125380 -23.552724 2.466090 -1.576214 2.681695 8.774845 -0.950764 28.204235 1.313141 32.907810 -3.858231 2.117142 9.311150 -0.358630 0.000003 0.000002 0.000001 9.109305 -0.518014 2.259899 0.339555 4.671355 -7.844281 0.387007 2.823613 -20.566214 0.034625 0.816860 -10.169822 -0.000003 -0.000001 -0.000001 9.533400 0.000002 0.000003 0.912558 8.769291 -15.831721 0.919051 3.991186 -33.400421 0.170546 1.488909 -12.264395 0.000001 0.000001 0.000000 9.104496 -0.043009 -1.865108 2.555796 11.673074 -26.909169 1.710626 3.886852 -40.215454 0.544834 1.835109 -19.344148 -0.000001 0.000000 -0.000001 8.077809 -0.486899 -3.806311 5.576040 16.029226 -36.940600 1.378644 4.077725 -45.645618 0.486569 2.853428 -20.524712 0.000000 -0.000001 0.000004 -8.207801 -6.751709 -1.599544 3.262199 -0.470244 6.308061 9.003397 2.322093 5.044154 -5.168788 -0.704157 -6.396206 -3.623616 -0.000003 0.000001 -0.000000 -0.000000 -0.000000 8.207800 -6.751713 -1.599544 -10.496569 14.481287 13.580500 19.374807 8.500955 3.055922 -1.966112 16.809370 -7.307817 -2.848294 0.000002 0.000001 0.000000 0.000000 0.000000 
4.254032 102.822121 -0.926784 -7.093566 -12.338849 -6.718649 0.000000 10.181562 0.131524 5.502067 -1.631546 0.767920 1.447844 0.159043 5.267636 1.439227 0.650875 5.176812 0.000002 16.740358 -2.049023 6.856241 -0.743678 -2.003525 0.000001 9.617848 1.684974 12.472670 -3.164816 -2.248189 -0.000001 22.037354 7.501070 -0.000001 0.000001 0.000000 -4.569998 11.014853 -2.160841 6.134059 11.631851 12.611628 70.823850 65.249466 -31.178625 -0.000846 86.629188 0.001019 -37.760718 4.148010 43.214388 -2.464800 -1.573967 2.681918 8.964920 -3.611348 -6.716566 -2.008580 -24.030578 3.354452 3.455884 -14.538790 0.135348 -0.000002 -0.000003 0.000000 -9.108301 -0.517869 2.259819 3.159005 -8.864528 59.654517 4.040369 -6.287111 72.335760 2.236574 -4.811425 65.413917 0.000000 -0.000000 0.000002 -9.532507 -0.000001 0.000009 4.913311 -11.249704 68.028561 5.171890 -6.611834 85.330202 3.541244 -5.399334 67.577530 -0.000000 0.000001 0.000002 -9.103600 -0.043097 -1.865095 7.508305 -11.661247 79.351239 6.465793 -5.443074 92.216467 2.466255 -4.348675 69.362483 0.000000 0.000002 -0.000000 -8.076694 -0.486732 -3.806284 10.248011 -18.269004 89.801128 6.000840 -6.060057 97.534603 1.529684 -5.406813 73.654950 0.000001 0.000001 0.000002 4.570399 11.014664 -2.160816 -0.240000 -22.197104 -13.470030 12.627655 -45.520465 -36.118730 0.000066 -101.634110 0.000087 -3.597361 -4.125384 -23.552721 2.466099 -1.576214 2.681698 8.774840 -0.950774 28.204228 1.313131 32.907817 -3.858231 2.117151 9.311169 -0.358623 -0.000001 0.000003 0.000001 9.109310 -0.518001 2.259900 0.339558 4.671366 -7.844274 0.386997 2.823623 -20.566219 0.034640 0.816863 -10.169813 0.000001 0.000003 0.000003 9.533408 0.000018 0.000001 0.912562 8.769280 -15.831725 0.919023 3.991201 -33.400417 0.170567 1.488902 -12.264413 0.000001 0.000000 -0.000000 9.104514 -0.042994 -1.865104 2.555772 11.673078 -26.909175 1.710626 3.886876 -40.215443 0.544831 1.835106 -19.344149 0.000000 -0.000001 0.000002 8.077803 -0.486878 -3.806302 5.576030 16.029242 -36.940590 1.378649 4.077723 -45.645628 0.486562 2.853434 -20.524739 0.000001 0.000002 0.000000 -8.207799 -6.751697 -1.599544 3.622643 -0.281946 6.673966 8.105226 2.300984 5.199077 -4.823460 -0.813929 -6.893528 -3.767292 -0.000003 0.000001 0.000000 0.000000 0.000000 8.207798 -6.751706 -1.599544 -10.188490 14.461001 13.867113 18.256179 8.643857 3.179977 -0.089324 16.531737 -8.070816 -2.753818 -0.000003 -0.000005 -0.000000 -0.000002 0.000000 
3.617896 102.818977 -0.891731 -6.906148 -12.312389 -6.635950 0.000000 10.181548 0.131525 5.441609 -1.595206 0.629162 1.443290 0.165566 5.231663 1.435125 0.656292 5.140758 -0.000002 16.740379 -2.049025 6.795973 -0.725930 -1.988668 0.000001 9.617844 1.684977 12.486495 -3.085773 -2.109725 -0.000002 22.037354 7.501074 -0.000001 0.000001 -0.000001 -4.569996 11.014869 -2.160843 6.134065 11.631857 12.611640 70.823837 65.249473 -31.178632 -0.000913 86.629215 0.001036 -37.760708 4.147994 43.214371 -2.464807 -1.573972 2.681918 8.964933 -3.611349 -6.716582 -2.008603 -24.030590 3.354446 3.455884 -14.538790 0.135350 -0.000002 0.000001 -0.000001 -9.108302 -0.517885 2.259806 3.159000 -8.864517 59.654497 4.040366 -6.287117 72.335740 2.236585 -4.811427 65.413910 0.000001 -0.000004 0.000002 -9.532499 -0.000002 0.000003 4.913301 -11.249690 68.028548 5.171892 -6.611828 85.330175 3.541233 -5.399340 67.577530 0.000000 -0.000001 0.000000 -9.103607 -0.043094 -1.865098 7.508315 -11.661238 79.351232 6.465789 -5.443073 92.216433 2.466262 -4.348680 69.362477 -0.000000 -0.000001 0.000000 -8.076710 -0.486729 -3.806300 10.248023 -18.268982 89.801121 6.000860 -6.060034 97.534596 1.529676 -5.406808 73.654970 -0.000000 0.000001 0.000002 4.570395 11.014665 -2.160818 -0.239995 -22.197104 -13.470038 12.627643 -45.520468 -36.118768 -0.000006 -101.634082 0.000016 -3.597358 -4.125398 -23.552734 2.466090 -1.576217 2.681690 8.774852 -0.950767 28.204231 1.313120 32.907807 -3.858220 2.117161 9.311176 -0.358628 0.000004 0.000006 0.000003 9.109302 -0.518013 2.259891 0.339548 4.671377 -7.844257 0.387008 2.823593 -20.566224 0.034609 0.816863 -10.169808 0.000001 -0.000001 -0.000002 9.533403 0.000003 -0.000001 0.912568 8.769285 -15.831723 0.919020 3.991202 -33.400417 0.170560 1.488908 -12.264411 -0.000000 0.000002 0.000000 9.104495 -0.043008 -1.865104 2.555777 11.673076 -26.909180 1.710619 3.886863 -40.215454 0.544839 1.835103 -19.344129 0.000000 0.000001 -0.000000 8.077803 -0.486892 -3.806310 5.576037 16.029240 -36.940600 1.378658 4.077726 -45.645635 0.486555 2.853426 -20.524727 0.000004 -0.000006 0.000004 -8.207799 -6.751704 -1.599543 3.832248 -0.140424 6.971513 7.482712 2.242887 5.350734 -4.617305 -0.926490 -7.360320 -3.861392 -0.000001 0.000002 0.000000 -0.000001 -0.000000 8.207799 -6.751708 -1.599542 -10.127519 14.367778 14.099609 17.761635 9.174303 3.304069 0.351284 15.976415 -8.518515 -2.527685 0.000002 0.000004 -0.000000 0.000000 0.000000 
3.046699 102.834686 -0.863800 -6.722810 -12.238230 -6.542117 0.000001 10.181559 0.131524 5.406823 -1.568228 0.534205 1.448860 0.170504 5.205003 1.441033 0.660352 5.114061 -0.000001 16.740351 -2.049025 6.721211 -0.713669 -2.004991 -0.000001 9.617883 1.684970 12.451547 -3.076587 -1.976835 0.000001 22.037369 7.501073 0.000000 -0.000001 -0.000000 -4.570005 11.014856 -2.160841 6.134071 11.631858 12.611605 70.823864 65.249453 -31.178618 -0.000850 86.629174 0.000970 -37.760687 4.148014 43.214371 -2.464800 -1.573977 2.681895 8.964913 -3.611348 -6.716566 -2.008588 -24.030590 3.354455 3.455866 -14.538794 0.135355 -0.000001 -0.000002 0.000004 -9.108302 -0.517884 2.259793 3.159010 -8.864514 59.654497 4.040353 -6.287112 72.335760 2.236602 -4.811413 65.413910 0.000002 -0.000001 0.000003 -9.532501 0.000013 -0.000013 4.913271 -11.249689 68.028561 5.171879 -6.611831 85.330182 3.541244 -5.399335 67.577516 -0.000001 -0.000001 -0.000001 -9.103611 -0.043101 -1.865116 7.508292 -11.661243 79.351239 6.465775 -5.443063 92.216454 2.466250 -4.348679 69.362483 0.000000 -0.000001 0.000000 -8.076707 -0.486724 -3.806314 10.247993 -18.269006 89.801121 6.000855 -6.060027 97.534596 1.529679 -5.406820 73.654977 -0.000000 0.000001 -0.000002 4.570397 11.014649 -2.160817 -0.239996 -22.197090 -13.470024 12.627655 -45.520448 -36.118744 -0.000013 -101.634103 0.000003 -3.597358 -4.125388 -23.552734 2.466099 -1.576207 2.681697 8.774836 -0.950779 28.204242 1.313118 32.907810 -3.858235 2.117155 9.311178 -0.358627 -0.000001 -0.000000 0.000003 9.109300 -0.518010 2.259899 0.339546 4.671370 -7.844263 0.387007 2.823615 -20.566222 0.034627 0.816844 -10.169831 0.000000 -0.000002 0.000001 9.533400 0.000004 -0.000002 0.912557 8.769289 -15.831713 0.919032 3.991187 -33.400434 0.170563 1.488907 -12.264411 0.000000 0.000003 -0.000000 9.104497 -0.043011 -1.865099 2.555787 11.673063 -26.909159 1.710622 3.886861 -40.215474 0.544834 1.835095 -19.344137 -0.000000 0.000000 -0.000002 8.077799 -0.486898 -3.806301 5.576027 16.029238 -36.940600 1.378643 4.077719 -45.645618 0.486570 2.853424 -20.524722 -0.000001 -0.000002 0.000001 -8.207800 -6.751714 -1.599546 4.258909 -0.004718 7.218207 6.545805 2.135861 5.503330 -4.307358 -1.010345 -7.780971 -3.921820 -0.000003 -0.000000 -0.000000 -0.000001 -0.000000 8.207801 -6.751696 -1.599545 -10.016934 14.300148 14.263865 17.149934 9.737427 3.434463 0.833300 15.339531 -8.897706 -2.194227 -0.000001 -0.000001 -0.000000 0.000000 0.000000 
